<?xml version="1.0" encoding="UTF-8"?>
<svg xmlns="http://www.w3.org/2000/svg" xmlns:xlink="http://www.w3.org/1999/xlink" width="105px" height="32px" viewBox="0 0 104 32" version="1.1">
<g id="surface1">
<path style=" stroke:none;fill-rule:evenodd;fill:rgb(100%,60%,0%);fill-opacity:1;" d="M 64.332031 24.335938 C 58.359375 28.757812 49.703125 31.117188 42.25 31.117188 C 31.800781 31.117188 22.390625 27.234375 15.273438 20.777344 C 14.714844 20.269531 15.214844 19.574219 15.886719 19.972656 C 23.566406 24.460938 33.066406 27.164062 42.875 27.164062 C 49.492188 27.164062 56.773438 25.789062 63.464844 22.933594 C 64.476562 22.5 65.320312 23.597656 64.332031 24.335938 "/>
<path style=" stroke:none;fill-rule:evenodd;fill:rgb(100%,60%,0%);fill-opacity:1;" d="M 66.816406 21.480469 C 66.054688 20.5 61.769531 21.019531 59.84375 21.246094 C 59.257812 21.320312 59.167969 20.808594 59.695312 20.4375 C 63.109375 18.023438 68.710938 18.722656 69.363281 19.53125 C 70.019531 20.34375 69.195312 25.984375 65.988281 28.679688 C 65.496094 29.089844 65.023438 28.871094 65.246094 28.324219 C 65.964844 26.515625 67.578125 22.464844 66.816406 21.480469 "/>
<path style=" stroke:none;fill-rule:evenodd;fill:rgb(0%,0%,0%);fill-opacity:1;" d="M 59.980469 3.398438 L 59.980469 1.050781 C 59.980469 0.695312 60.246094 0.457031 60.570312 0.457031 L 71.023438 0.457031 C 71.359375 0.457031 71.628906 0.703125 71.628906 1.050781 L 71.628906 3.0625 C 71.625 3.398438 71.34375 3.839844 70.839844 4.535156 L 65.425781 12.308594 C 67.4375 12.257812 69.5625 12.558594 71.386719 13.59375 C 71.800781 13.828125 71.910156 14.167969 71.941406 14.503906 L 71.941406 17.007812 C 71.941406 17.351562 71.566406 17.75 71.171875 17.542969 C 67.957031 15.847656 63.683594 15.664062 60.125 17.5625 C 59.765625 17.757812 59.382812 17.363281 59.382812 17.023438 L 59.382812 14.644531 C 59.382812 14.261719 59.386719 13.609375 59.769531 13.03125 L 66.046875 3.988281 L 60.582031 3.988281 C 60.246094 3.988281 59.980469 3.75 59.980469 3.398438 "/>
<path style=" stroke:none;fill-rule:evenodd;fill:rgb(0%,0%,0%);fill-opacity:1;" d="M 21.839844 18.039062 L 18.660156 18.039062 C 18.355469 18.015625 18.113281 17.785156 18.089844 17.496094 L 18.089844 1.09375 C 18.089844 0.765625 18.363281 0.503906 18.703125 0.503906 L 21.671875 0.503906 C 21.980469 0.515625 22.226562 0.753906 22.246094 1.050781 L 22.246094 3.195312 L 22.304688 3.195312 C 23.078125 1.125 24.535156 0.15625 26.492188 0.15625 C 28.484375 0.15625 29.726562 1.125 30.621094 3.195312 C 31.390625 1.125 33.140625 0.15625 35.015625 0.15625 C 36.347656 0.15625 37.808594 0.710938 38.699219 1.949219 C 39.703125 3.332031 39.5 5.335938 39.5 7.09375 L 39.492188 17.445312 C 39.492188 17.773438 39.222656 18.039062 38.882812 18.039062 L 35.703125 18.039062 C 35.386719 18.015625 35.132812 17.757812 35.132812 17.445312 L 35.132812 8.75 C 35.132812 8.058594 35.195312 6.332031 35.042969 5.675781 C 34.804688 4.574219 34.09375 4.265625 33.171875 4.265625 C 32.402344 4.265625 31.597656 4.78125 31.269531 5.609375 C 30.945312 6.4375 30.976562 7.820312 30.976562 8.75 L 30.976562 17.445312 C 30.976562 17.773438 30.703125 18.039062 30.363281 18.039062 L 27.1875 18.039062 C 26.863281 18.015625 26.613281 17.757812 26.613281 17.445312 L 26.609375 8.75 C 26.609375 6.921875 26.910156 4.230469 24.648438 4.230469 C 22.363281 4.230469 22.453125 6.855469 22.453125 8.75 L 22.453125 17.445312 C 22.453125 17.773438 22.179688 18.039062 21.839844 18.039062 "/>
<path style=" stroke:none;fill-rule:evenodd;fill:rgb(0%,0%,0%);fill-opacity:1;" d="M 80.628906 0.15625 C 85.351562 0.15625 87.90625 4.230469 87.90625 9.40625 C 87.90625 14.410156 85.082031 18.378906 80.628906 18.378906 C 75.996094 18.378906 73.472656 14.308594 73.472656 9.234375 C 73.472656 4.125 76.027344 0.15625 80.628906 0.15625 Z M 80.65625 3.507812 C 78.3125 3.507812 78.164062 6.714844 78.164062 8.714844 C 78.164062 10.71875 78.132812 15 80.628906 15 C 83.09375 15 83.210938 11.546875 83.210938 9.445312 C 83.210938 8.058594 83.152344 6.40625 82.738281 5.09375 C 82.378906 3.949219 81.667969 3.507812 80.65625 3.507812 "/>
<path style=" stroke:none;fill-rule:evenodd;fill:rgb(0%,0%,0%);fill-opacity:1;" d="M 94.023438 18.039062 L 90.855469 18.039062 C 90.539062 18.015625 90.285156 17.757812 90.285156 17.445312 L 90.28125 1.039062 C 90.308594 0.738281 90.570312 0.503906 90.894531 0.503906 L 93.839844 0.503906 C 94.117188 0.515625 94.347656 0.707031 94.410156 0.960938 L 94.410156 3.46875 L 94.46875 3.46875 C 95.359375 1.226562 96.605469 0.15625 98.800781 0.15625 C 100.230469 0.15625 101.621094 0.675781 102.515625 2.089844 C 103.347656 3.402344 103.347656 5.609375 103.347656 7.195312 L 103.347656 17.519531 C 103.3125 17.808594 103.046875 18.039062 102.734375 18.039062 L 99.546875 18.039062 C 99.253906 18.015625 99.011719 17.800781 98.980469 17.519531 L 98.980469 8.613281 C 98.980469 6.820312 99.1875 4.195312 96.992188 4.195312 C 96.214844 4.195312 95.503906 4.714844 95.152344 5.507812 C 94.703125 6.507812 94.648438 7.507812 94.648438 8.613281 L 94.648438 17.445312 C 94.640625 17.773438 94.363281 18.039062 94.023438 18.039062 "/>
<path style=" stroke:none;fill-rule:evenodd;fill:rgb(0%,0%,0%);fill-opacity:1;" d="M 51.644531 10.203125 C 51.644531 11.449219 51.675781 12.488281 51.050781 13.59375 C 50.542969 14.492188 49.738281 15.042969 48.847656 15.042969 C 47.625 15.042969 46.910156 14.109375 46.910156 12.730469 C 46.910156 10.003906 49.339844 9.511719 51.644531 9.511719 Z M 54.851562 17.992188 C 54.640625 18.183594 54.335938 18.195312 54.101562 18.070312 C 53.042969 17.1875 52.851562 16.78125 52.273438 15.9375 C 50.53125 17.726562 49.289062 18.261719 47.03125 18.261719 C 44.351562 18.261719 42.269531 16.605469 42.269531 13.28125 C 42.269531 10.6875 43.667969 8.921875 45.664062 8.058594 C 47.390625 7.296875 49.800781 7.160156 51.644531 6.949219 L 51.644531 6.535156 C 51.644531 5.777344 51.703125 4.878906 51.253906 4.222656 C 50.871094 3.632812 50.128906 3.390625 49.46875 3.390625 C 48.257812 3.390625 47.179688 4.015625 46.914062 5.308594 C 46.863281 5.597656 46.652344 5.878906 46.359375 5.894531 L 43.277344 5.558594 C 43.019531 5.5 42.726562 5.289062 42.804688 4.890625 C 43.511719 1.132812 46.894531 0 49.917969 0 C 51.464844 0 53.488281 0.414062 54.707031 1.589844 C 56.257812 3.042969 56.109375 4.980469 56.109375 7.089844 L 56.109375 12.070312 C 56.109375 13.566406 56.726562 14.222656 57.308594 15.03125 C 57.507812 15.320312 57.554688 15.664062 57.292969 15.878906 C 56.644531 16.425781 55.492188 17.4375 54.855469 18.003906 L 54.851562 17.992188 "/>
<path style=" stroke:none;fill-rule:evenodd;fill:rgb(0%,0%,0%);fill-opacity:1;" d="M 9.945312 10.203125 C 9.945312 11.449219 9.976562 12.488281 9.347656 13.59375 C 8.84375 14.492188 8.042969 15.042969 7.148438 15.042969 C 5.925781 15.042969 5.214844 14.109375 5.214844 12.730469 C 5.214844 10.003906 7.644531 9.511719 9.945312 9.511719 Z M 13.152344 17.992188 C 12.941406 18.183594 12.636719 18.195312 12.402344 18.070312 C 11.34375 17.1875 11.15625 16.78125 10.574219 15.9375 C 8.832031 17.726562 7.59375 18.261719 5.332031 18.261719 C 2.65625 18.261719 0.570312 16.605469 0.570312 13.28125 C 0.570312 10.6875 1.972656 8.921875 3.960938 8.058594 C 5.691406 7.296875 8.101562 7.160156 9.945312 6.949219 L 9.945312 6.535156 C 9.945312 5.777344 10.003906 4.878906 9.558594 4.222656 C 9.171875 3.632812 8.425781 3.390625 7.773438 3.390625 C 6.5625 3.390625 5.480469 4.015625 5.214844 5.308594 C 5.160156 5.597656 4.953125 5.878906 4.664062 5.894531 L 1.578125 5.558594 C 1.320312 5.5 1.03125 5.289062 1.105469 4.890625 C 1.816406 1.132812 5.191406 0 8.21875 0 C 9.765625 0 11.789062 0.414062 13.007812 1.589844 C 14.558594 3.042969 14.410156 4.980469 14.410156 7.089844 L 14.410156 12.070312 C 14.410156 13.566406 15.027344 14.222656 15.609375 15.03125 C 15.8125 15.320312 15.859375 15.664062 15.597656 15.878906 C 14.949219 16.425781 13.796875 17.4375 13.160156 18.003906 L 13.152344 17.992188 "/>
</g>
</svg>
